<svg id="Layer_1" data-name="Layer 1" xmlns="http://www.w3.org/2000/svg" viewBox="0 0 226.96 196.53"><defs><style>.cls-1{fill:#070305;}</style></defs><polygon class="cls-1" points="59.38 142.58 47.09 163.83 41.33 173.81 38.57 178.58 30.03 193.36 0 193.36 44.99 115.4 75.08 115.4 59.38 142.58"/><path class="cls-1" d="M150.15,131.09l9.75-16.91,10.19-17.63L119.94,9.73,68.87,98.17l17.4,30.14h-.06l15.7,27.17,18,31.24H59.35l2.75,4.77,8.52,14.78h88.81l-2.33-4.06L140,172.65,132.15,159l0,0-15-26.07-2.67-4.64v0l-3.54-6-5-8.7L97.38,98.75,105.92,84l8.52-14.78L123,84l6.1,10.61,2.41,4.17v0l0,0L140,113.53l2.49,4.35,6,10.43v0Z" transform="translate(0 -9.73)"/><polygon class="cls-1" points="226.96 193.36 187.1 193.36 184.74 189.3 176.22 174.55 176.22 174.52 167.68 159.74 164.17 153.66 173.92 136.81 184.11 119.15 226.96 193.36"/></svg>