<svg id="Layer_1" data-name="Layer 1" xmlns="http://www.w3.org/2000/svg" viewBox="0 0 226.96 216"><defs><style>.cls-1{fill:#231f20;}.cls-2{fill:#fff;}</style></defs><rect class="cls-1" width="226.96" height="216" rx="16.65"/><polygon class="cls-2" points="108.8 28.46 42.54 84.52 117.01 135.89 117.88 142.1 117.81 142.16 34.84 84.92 34.69 84.93 34.77 84.87 34.72 84.85 34.81 84.84 34.86 84.8 34.77 84.73 34.93 84.74 108.29 22.67 192.27 77.23 184.45 77.61 108.8 28.46"/><polygon class="cls-2" points="118.87 187.54 184.36 130.99 109.21 80.19 108.25 73.97 108.32 73.91 192.06 130.53 192.21 130.52 192.14 130.58 192.18 130.61 192.09 130.61 192.05 130.66 192.14 130.72 191.97 130.72 119.46 193.33 34.75 139.4 42.56 138.96 118.87 187.54"/></svg>